<svg width="30" height="60" viewBox="0 0 30 60" fill="none" xmlns="http://www.w3.org/2000/svg">
<path d="M21.2011 19.2798C20.7069 18.9077 20 19.2603 20 19.8789L20 25.1211C20 25.7398 20.7069 26.0924 21.2011 25.7203L24.6825 23.0992C25.081 22.7992 25.081 22.2009 24.6825 21.9009L21.2011 19.2798Z" fill="black"/>
<path d="M8.7989 25.7202C9.29315 26.0923 10 25.7397 10 25.1211L10 19.8789C10 19.2602 9.29315 18.9076 8.7989 19.2797L5.3175 21.9008C4.91897 22.2008 4.91897 22.7991 5.3175 23.0991L8.7989 25.7202Z" fill="black"/>
<g opacity="0.3">
<path d="M21.2011 4.27978C20.7069 3.90767 20 4.26028 20 4.87895V10.1211C20 10.7398 20.7069 11.0924 21.2011 10.7203L24.6825 8.0992C25.081 7.79916 25.081 7.20091 24.6825 6.90086L21.2011 4.27978Z" fill="black"/>
</g>
<g opacity="0.3">
<path d="M8.7989 10.7202C9.29315 11.0923 10 10.7397 10 10.1211L10 4.87889C10 4.26022 9.29315 3.9076 8.7989 4.27972L5.3175 6.9008C4.91897 7.20084 4.91897 7.79909 5.3175 8.09914L8.7989 10.7202Z" fill="black"/>
</g>
<path d="M25.7202 51.2011C26.0923 50.7069 25.7397 50 25.1211 50L19.8789 50C19.2602 50 18.9076 50.7069 19.2797 51.2011L21.9008 54.6825C22.2008 55.081 22.7991 55.081 23.0991 54.6825L25.7202 51.2011Z" fill="black"/>
<path d="M4.27978 53.7989C3.90767 54.2931 4.26028 55 4.87895 55L10.1211 55C10.7398 55 11.0924 54.2931 10.7203 53.7989L8.0992 50.3175C7.79916 49.919 7.20091 49.919 6.90086 50.3175L4.27978 53.7989Z" fill="black"/>
<g opacity="0.3">
<path d="M25.7202 36.2011C26.0923 35.7069 25.7397 35 25.1211 35L19.8789 35C19.2602 35 18.9076 35.7069 19.2797 36.2011L21.9008 39.6825C22.2008 40.081 22.7991 40.081 23.0991 39.6825L25.7202 36.2011Z" fill="black"/>
</g>
<g opacity="0.3">
<path d="M4.27978 38.7989C3.90767 39.2931 4.26028 40 4.87895 40L10.1211 40C10.7398 40 11.0924 39.2931 10.7203 38.7989L8.0992 35.3175C7.79916 34.919 7.2009 34.919 6.90086 35.3175L4.27978 38.7989Z" fill="black"/>
</g>
</svg>
